<svg id="github-icon" xmlns="http://www.w3.org/2000/svg" viewBox="0 0 14 14"><defs><style>.cls-1{fill:#586478;}</style></defs><g id="surface1"><path class="cls-1" d="M1.51,0A1.52,1.52,0,0,0,0,1.51v11A1.52,1.52,0,0,0,1.51,14h11A1.52,1.52,0,0,0,14,12.49v-11A1.52,1.52,0,0,0,12.49,0ZM3.65,3.05a1.28,1.28,0,0,1,1.08.65,2.75,2.75,0,0,1,.65-.08H8.84a2.74,2.74,0,0,1,.64.08,1.28,1.28,0,0,1,1.08-.65c.48,0,.58.38.58.86v.88a2.83,2.83,0,0,1,.57,1.71V7.66a2.87,2.87,0,0,1-2.87,2.88H5.38A2.88,2.88,0,0,1,2.5,7.66V6.5a2.83,2.83,0,0,1,.57-1.71V3.91C3.07,3.43,3.17,3.05,3.65,3.05ZM5.38,6.5a1.73,1.73,0,1,0,0,3.46H8.84a1.73,1.73,0,0,0,0-3.46Zm0,.58c.48,0,.57.39.57.87v.3c0,.48-.09.87-.57.87s-.58-.39-.58-.87V8C4.8,7.47,4.9,7.08,5.38,7.08Zm3.46,0c.47,0,.57.39.57.87v.3c0,.48-.1.87-.57.87s-.58-.39-.58-.87V8C8.26,7.47,8.36,7.08,8.84,7.08Z"/></g></svg>