<svg id="frontend" xmlns="http://www.w3.org/2000/svg" viewBox="0 0 234 192.76"><defs><style>.cls-1,.cls-2,.cls-4{fill:none;}.cls-1,.cls-2,.cls-3,.cls-4{stroke:#fff;stroke-miterlimit:10;}.cls-1,.cls-2{stroke-width:8px;}.cls-2,.cls-3,.cls-4{stroke-linecap:round;}.cls-3,.cls-4{stroke-width:7px;}</style></defs><path class="cls-1" d="M217.47,188.76h-201A12.5,12.5,0,0,1,4,176.26V16.5A12.5,12.5,0,0,1,16.47,4h201A12.5,12.5,0,0,1,230,16.5V176.26A12.5,12.5,0,0,1,217.47,188.76Z" transform="translate(0.03)"/><line class="cls-1" x1="4.03" y1="46.86" x2="230" y2="46.86"/><circle class="cls-1" cx="150.67" cy="26.01" r="4.34"/><circle class="cls-1" cx="177.13" cy="26.01" r="4.34"/><circle class="cls-1" cx="201.64" cy="26.01" r="4.34"/><line class="cls-2" x1="128.79" y1="78.51" x2="105.23" y2="153.95"/><polyline class="cls-3" points="67.44 115.51 78.18 104.77 88.92 94.03"/><line class="cls-4" x1="88.2" y1="137.71" x2="66.72" y2="116.23"/><line class="cls-4" x1="172.15" y1="117.86" x2="150.67" y2="96.38"/><line class="cls-4" x1="150.67" y1="139.35" x2="172.15" y2="117.86"/></svg>