<?xml version="1.0" encoding="utf-8"?>
<!-- Generator: Adobe Illustrator 26.0.1, SVG Export Plug-In . SVG Version: 6.00 Build 0)  -->
<svg version="1.1" id="tower" xmlns="http://www.w3.org/2000/svg" xmlns:xlink="http://www.w3.org/1999/xlink" x="0px" y="0px"
	 viewBox="0 0 612 792" style="enable-background:new 0 0 612 792;" xml:space="preserve">
<style type="text/css">
	.st0{fill:none;stroke:#FFFFFF;stroke-width:23;stroke-miterlimit:10;}
</style>
<path class="st0" d="M306,52.6c143.5,0,259.8,35,259.8,78.2"/>
<path class="st0" d="M46.2,130.8c0-43.2,116.3-78.2,259.8-78.2"/>
<path class="st0" d="M306,209.1c-143.5,0-259.8-35-259.8-78.2"/>
<path class="st0" d="M565.8,130.8C565.8,174,449.5,209,306,209"/>
<path class="st0" d="M308,391.3c-143.9,0-260.5-35.1-260.5-78.4"/>
<path class="st0" d="M565.8,312.9c0,43.3-116.6,78.4-260.5,78.4"/>
<path class="st0" d="M305.3,573.4c-142.4,0-257.8-32.8-257.8-73.1"/>
<path class="st0" d="M565.8,494.9c0,43.3-116.6,78.5-260.5,78.5"/>
<path class="st0" d="M310.7,739c-145.3,0-263.2-34.8-263.2-77.7"/>
<path class="st0" d="M565.8,662.6c0,42.4-114.2,76.8-255.2,76.8"/>
<line class="st0" x1="565.8" y1="662.6" x2="565.8" y2="126.2"/>
<line class="st0" x1="47.5" y1="123.9" x2="47.5" y2="665.9"/>
</svg>
