<svg id="Layer_1" data-name="Layer 1" xmlns="http://www.w3.org/2000/svg" viewBox="0 0 146.36 141.46"><defs><style>.cls-1,.cls-2,.cls-3{fill:none;stroke:#fff;stroke-linejoin:round;}.cls-1{stroke-linecap:round;}.cls-1,.cls-2{stroke-width:5px;}.cls-3{stroke-width:4px;}</style></defs><g id="Layer_2" data-name="Layer 2"><path class="cls-1" d="M105.34,6h-63c-8,0-15.69,1.85-21.35,5.16L2.51,21.92" transform="translate(0.02 0.01)"/><path class="cls-1" d="M72.84,38H42.34c-8,0-15.73-1.86-21.4-5.17L2.48,22.08" transform="translate(0.02 0.01)"/><path class="cls-1" d="M37.34,143.61" transform="translate(0.02 0.01)"/><path class="cls-1" d="M80.67,100.75c2.22.34,1.91,2.31,4.13,2.65s2.52-1.63,4.73-1.29,1.91,2.31,4.12,2.65,2.52-1.63,4.74-1.29,1.91,2.31,4.12,2.65,2.52-1.63,4.74-1.29,1.91,2.32,4.12,2.66,2.52-1.64,4.74-1.3,1.91,2.32,4.13,2.66,2.52-1.64,4.73-1.3,1.91,2.32,4.13,2.66,2.52-1.64,4.74-1.3,1.91,2.32,4.13,2.66,2.22-1,4.44-1.29" transform="translate(0.02 0.01)"/><line class="cls-1" x1="49.9" y1="132.43" x2="142.36" y2="133.01"/><line class="cls-2" x1="142.36" y1="133.51" x2="142.36" y2="109.51"/></g><g id="Layer_1-2" data-name="Layer 1"><path class="cls-3" d="M13.94,98.32,103.2,9.05a24.1,24.1,0,0,1,34.08,0h0a24.1,24.1,0,0,1,0,34.08L48,132.39a24.1,24.1,0,0,1-34.08,0h0A24.1,24.1,0,0,1,13.94,98.32Z" transform="translate(0.02 0.01)"/><circle class="cls-2" cx="123.86" cy="22.51" r="4.5"/><path class="cls-1" d="M22.64,123.71l14-14" transform="translate(0.02 0.01)"/><path class="cls-1" d="M36.62,123.71l-14-14" transform="translate(0.02 0.01)"/></g></svg>