<svg xmlns="http://www.w3.org/2000/svg" viewBox="0 0 592.39 126.47"><defs><style>.cls-1{fill:#fff;}.cls-2{fill:none;stroke:#fff;stroke-linecap:round;stroke-linejoin:round;stroke-width:3px;}</style></defs><g id="layer"><path class="cls-1" d="M209.3,271.8h24.4c13.6,0,20.8,5.6,20.8,16v.4a12.64,12.64,0,0,1-10,13.2,13.8,13.8,0,0,1,12.4,14.8v.4c0,11.6-7.6,17.6-22,17.6H209.3Zm22.1,25.7c6.8,0,9.6-2.4,9.6-8v-.4c0-5.2-2.8-7.6-9.6-7.6H223v16Zm1.6,26.8c6.8,0,10-3.2,10-8.8v-.4c0-5.6-3.2-8.8-10.8-8.8h-8.8v18Zm27.6-2.8c0-10.4,9.6-14.4,23.6-14.4h5.2v-2c0-5.6-1.6-8.4-7.2-8.4a6.77,6.77,0,0,0-7.6,6v.4h-12c.8-10.8,9.2-15.6,20.4-15.6s19.2,4.4,19.2,16.8v29.6H289.8v-5.2a15.47,15.47,0,0,1-13.6,6.4C267.4,335.1,260.6,331.1,260.6,321.5Zm28.9-3.2v-4h-4.8c-7.2,0-11.6,1.6-11.6,6.4,0,3.2,2,5.6,6.8,5.6C285.1,326.3,289.5,323.1,289.5,318.3Zm17.6,1.6h11.6c.4,4,2.4,6.4,8,6.4s7.2-2,7.2-4.8-2.8-4.4-9.2-5.6c-12-2-16.8-5.2-16.8-14.4s8.4-14,18-14c10,0,17.6,3.6,18.8,14H333.1c-.8-3.6-2.8-5.6-7.2-5.6s-6.4,2-6.4,4.8,2,4,8.8,4.8c11.2,1.6,17.6,4.4,17.6,14.4s-7.2,15.2-19.2,15.2S307.5,329.5,307.1,319.9Zm42.4-8v-.8a22.21,22.21,0,0,1,21.6-23.6h2c11.6,0,22.4,6.8,22.4,23.2v3.6H362.3c.4,7.6,4.4,12,11.2,12,6,0,8.8-2.4,9.6-6.4h12c-1.6,10-9.2,15.2-21.6,15.2C359.6,335.1,349.5,326.3,349.5,311.9Zm33.3-5.6c-.4-6.8-4-10.4-10-10.4a10.33,10.33,0,0,0-10.4,10.4Zm15.6,5.6v-.8c-.4-12.4,9.2-23.2,21.6-23.6h2c10.4,0,20.4,4.4,21.2,17.6h-12a8.38,8.38,0,0,0-8.8-7.6c-6.4,0-10.8,4.8-10.8,13.6v.8c0,9.2,4,14,11.2,14a8.83,8.83,0,0,0,9.6-8.8h11.2c-.8,10.8-8.4,18.4-21.6,18.4s-23.6-8.8-23.6-23.6Zm48.5,9.6c0-10.4,9.6-14.4,23.6-14.4h5.2v-2c0-5.6-1.6-8.4-7.2-8.4a6.77,6.77,0,0,0-7.6,6v.8h-12c.8-10.8,9.2-15.6,20.4-15.6s19.2,4.4,19.2,16.8v29.2H476.1v-5.2a15.47,15.47,0,0,1-13.6,6.4C453.7,335.1,446.9,331.1,446.9,321.5Zm28.4-3.2v-4h-4.8c-7.2,0-11.6,1.6-11.6,6.4,0,3.2,2,5.6,6.8,5.6C471.3,326.3,475.3,323.1,475.3,318.3Zm21.2-29.6h12.8v6.8c2.8-5.2,8-8,14-8a12.66,12.66,0,0,1,12.8,8,18.27,18.27,0,0,1,15.2-8c8.4,0,15.2,5.2,15.2,17.6v28.8H554.1V306.3c0-6-2.4-8.4-7.2-8.4a8.22,8.22,0,0,0-8.8,8v28H525.7V306.3c0-6-2.8-8.4-7.2-8.4-4.8-.4-8.4,3.6-8.8,8v28H496.9Zm78.5,0h12.4v7.2a16.9,16.9,0,0,1,14.4-8c11.2,0,20,8.4,20,23.2v.8c0,15.2-8.4,23.6-20,23.6a15.23,15.23,0,0,1-14.4-8v22.4H575Zm34.1,22.8v-.8c0-9.2-4.4-13.6-10.8-13.6s-11.2,4.4-11.2,13.6v.8c0,9.2,4.4,13.6,11.2,13.6S609.1,320.3,609.1,311.5Z" transform="translate(-29.41 -237.87)"/><path class="cls-1" d="M29.41,335.28a33.45,33.45,0,0,0,3.68,4.56,69.06,69.06,0,0,0,8.24,7.8c6.43,5.05,14.18,8.24,22,11a116.82,116.82,0,0,0,27.91,5.05,157.4,157.4,0,0,0,32.91-.44,112.15,112.15,0,0,0,29.72-6.87,78.18,78.18,0,0,0,22.86-13.73c1.82-1.37,6.66-8.63,8.52-10.49l-3.86-16.54A126.66,126.66,0,0,0,169.94,285a114.38,114.38,0,0,0-16-22.86,85.16,85.16,0,0,0-20.11-16.48,75.85,75.85,0,0,0-12.8-5.5,40.85,40.85,0,0,0-7.31-1.81c-.44,0-1.37-.44-1.82-.44H102.6a2.79,2.79,0,0,0-1.82.44,10.24,10.24,0,0,0-3.68.93,40.16,40.16,0,0,0-7.31,2.31,70.71,70.71,0,0,0-13.24,6.86,88.22,88.22,0,0,0-21,20.11,104.44,104.44,0,0,0-15.11,27c-4.12,10.06-9.17,28.84-11,39.78m154.22-9.61M39.47,328.41c0-.93.44-1.37.44-2.3.44-1.37.93-2.75,1.37-4.12a80.91,80.91,0,0,1,7.31-14.18c1.37-2.3,2.75-4.56,4.12-6.42A33.88,33.88,0,0,1,57.27,295c2.75-3.19,5.94-6.87,10.5-8.24,5.93-1.81,10.5,4.12,14.18,8.24,1.81,2.31,4.12,4.56,6.86,5.5a14,14,0,0,0,4.12.93c1.82,0,3.68-1.38,5.5-2.75,4.12-3.19,7.3-7.8,10.49-11.87,3.68-4.56,6.87-9.17,11-13.24,1.82-1.82,3.19-4.12,5.94-4.56a3.91,3.91,0,0,1,3.18,0c.44.44.94.44,1.38.93a6.43,6.43,0,0,0,1.81,1.37,128.08,128.08,0,0,1,11.87,10.5c3.19,3.19,6.43,6.86,9.62,10.49,2.74,3.68,5.93,6.87,8.24,11,2.74,4.56,5.49,9.61,8.24,14.18,2.3,4.56,5.05,9.61,2.74,14.17l-.44.93c-4.56,7.31-12.36,11.87-20.11,14.62a94.72,94.72,0,0,1-29.72,5.94,182.58,182.58,0,0,1-31.54-.45c-9.62-.93-18.74-2.3-27.91-5.93-7.31-2.75-14.62-6.87-19.67-13.24a25.81,25.81,0,0,1-3.19-4.57l-.44-.44h-.44Zm49.42-9.67a7.58,7.58,0,1,0-7.57,7.58A7.57,7.57,0,0,0,88.89,318.74Zm50.9,0a7.58,7.58,0,1,0-7.58,7.58A7.57,7.57,0,0,0,139.79,318.74Z" transform="translate(-29.41 -237.87)"/></g><g id="Layer_2" data-name="Layer 2"><path class="cls-2" d="M90.63,332.72c1.46,4.68,8,8.1,15.6,8.21,8,.11,15.06-3.5,16.41-8.46" transform="translate(-29.41 -237.87)"/></g></svg>