<?xml version="1.0" encoding="UTF-8"?>
<svg xmlns="http://www.w3.org/2000/svg" xmlns:xlink="http://www.w3.org/1999/xlink" width="328px" height="111px" viewBox="0 0 328 111" version="1.1">
<g id="surface1">
<path style=" stroke:none;fill-rule:nonzero;fill:rgb(100%,100%,100%);fill-opacity:1;" d="M 139.582031 56.921875 C 139.582031 72.332031 127.535156 83.683594 112.75 83.683594 C 97.964844 83.683594 85.917969 72.332031 85.917969 56.921875 C 85.917969 41.40625 97.964844 30.164062 112.75 30.164062 C 127.535156 30.164062 139.582031 41.40625 139.582031 56.921875 Z M 127.835938 56.921875 C 127.835938 47.296875 120.855469 40.707031 112.75 40.707031 C 104.644531 40.707031 97.664062 47.296875 97.664062 56.921875 C 97.664062 66.457031 104.644531 73.140625 112.75 73.140625 C 120.855469 73.140625 127.835938 66.441406 127.835938 56.921875 Z M 127.835938 56.921875 "/>
<path style=" stroke:none;fill-rule:nonzero;fill:rgb(100%,100%,100%);fill-opacity:1;" d="M 197.464844 56.921875 C 197.464844 72.332031 185.417969 83.683594 170.632812 83.683594 C 155.847656 83.683594 143.800781 72.332031 143.800781 56.921875 C 143.800781 41.417969 155.847656 30.164062 170.632812 30.164062 C 185.417969 30.164062 197.464844 41.40625 197.464844 56.921875 Z M 185.71875 56.921875 C 185.71875 47.296875 178.734375 40.707031 170.632812 40.707031 C 162.527344 40.707031 155.546875 47.296875 155.546875 56.921875 C 155.546875 66.457031 162.527344 73.140625 170.632812 73.140625 C 178.734375 73.140625 185.71875 66.441406 185.71875 56.921875 Z M 185.71875 56.921875 "/>
<path style=" stroke:none;fill-rule:nonzero;fill:rgb(100%,100%,100%);fill-opacity:1;" d="M 252.933594 31.78125 L 252.933594 79.824219 C 252.933594 99.585938 241.285156 107.65625 227.515625 107.65625 C 214.550781 107.65625 206.75 98.984375 203.804688 91.890625 L 214.03125 87.628906 C 215.851562 91.984375 220.316406 97.125 227.5 97.125 C 236.316406 97.125 241.78125 91.683594 241.78125 81.441406 L 241.78125 77.589844 L 241.371094 77.589844 C 238.742188 80.835938 233.675781 83.671875 227.285156 83.671875 C 213.910156 83.671875 201.660156 72.015625 201.660156 57.019531 C 201.660156 41.914062 213.910156 30.164062 227.285156 30.164062 C 233.664062 30.164062 238.730469 33 241.371094 36.148438 L 241.78125 36.148438 L 241.78125 31.792969 L 252.933594 31.792969 Z M 242.613281 57.019531 C 242.613281 47.597656 236.328125 40.707031 228.332031 40.707031 C 220.230469 40.707031 213.441406 47.597656 213.441406 57.019531 C 213.441406 66.347656 220.230469 73.140625 228.332031 73.140625 C 236.328125 73.140625 242.613281 66.347656 242.613281 57.019531 Z M 242.613281 57.019531 "/>
<path style=" stroke:none;fill-rule:nonzero;fill:rgb(100%,100%,100%);fill-opacity:1;" d="M 271.324219 3.621094 L 271.324219 82.042969 L 259.867188 82.042969 L 259.867188 3.621094 Z M 271.324219 3.621094 "/>
<path style=" stroke:none;fill-rule:nonzero;fill:rgb(100%,100%,100%);fill-opacity:1;" d="M 315.964844 65.730469 L 325.082031 71.8125 C 322.140625 76.167969 315.046875 83.671875 302.796875 83.671875 C 287.601562 83.671875 276.253906 71.921875 276.253906 56.910156 C 276.253906 40.996094 287.699219 30.152344 301.484375 30.152344 C 315.363281 30.152344 322.152344 41.203125 324.371094 47.175781 L 325.589844 50.214844 L 289.832031 65.03125 C 292.570312 70.402344 296.828125 73.140625 302.796875 73.140625 C 308.777344 73.140625 312.925781 70.195312 315.964844 65.730469 Z M 287.90625 56.101562 L 311.804688 46.171875 C 310.492188 42.832031 306.535156 40.503906 301.878906 40.503906 C 295.910156 40.503906 287.601562 45.777344 287.90625 56.101562 Z M 287.90625 56.101562 "/>
<path style=" stroke:none;fill-rule:nonzero;fill:rgb(100%,100%,100%);fill-opacity:1;" d="M 42.554688 49.960938 L 42.554688 38.609375 L 80.792969 38.609375 C 81.167969 40.585938 81.359375 42.929688 81.359375 45.460938 C 81.359375 53.980469 79.035156 64.511719 71.53125 72.015625 C 64.238281 79.617188 54.914062 83.671875 42.566406 83.671875 C 19.679688 83.671875 0.433594 65.019531 0.433594 42.121094 C 0.433594 19.21875 19.679688 0.566406 42.566406 0.566406 C 55.230469 0.566406 64.25 5.539062 71.027344 12.015625 L 63.019531 20.027344 C 58.160156 15.46875 51.574219 11.921875 42.554688 11.921875 C 25.84375 11.921875 12.769531 25.398438 12.769531 42.121094 C 12.769531 58.84375 25.84375 72.320312 42.554688 72.320312 C 53.394531 72.320312 59.570312 67.964844 63.527344 64.007812 C 66.734375 60.796875 68.84375 56.210938 69.675781 49.949219 Z M 42.554688 49.960938 "/>
</g>
</svg>
